<svg width="230" height="61" viewBox="0 0 230 61" fill="none" xmlns="http://www.w3.org/2000/svg">
<g clip-path="url(#clip0_2885_100)">
<g clip-path="url(#clip1_2885_100)">
<circle cx="1.5" cy="2.22522" r="1.5" fill="#123549" fill-opacity="0.4"/>
<circle cx="14.5" cy="2.22522" r="1.5" fill="#123549" fill-opacity="0.4"/>
<circle cx="27.5" cy="2.22522" r="1.5" fill="#123549" fill-opacity="0.4"/>
<circle cx="40.5" cy="2.22522" r="1.5" fill="#123549" fill-opacity="0.4"/>
<circle cx="53.5" cy="2.22522" r="1.5" fill="#123549" fill-opacity="0.4"/>
<circle cx="66.5" cy="2.22522" r="1.5" fill="#123549" fill-opacity="0.4"/>
<circle cx="79.5" cy="2.22522" r="1.5" fill="#123549" fill-opacity="0.4"/>
<circle cx="92.5" cy="2.22522" r="1.5" fill="#123549" fill-opacity="0.4"/>
<circle cx="105.5" cy="2.22522" r="1.5" fill="#123549" fill-opacity="0.4"/>
<circle cx="118.5" cy="2.22522" r="1.5" fill="#123549" fill-opacity="0.4"/>
<circle cx="131.5" cy="2.22522" r="1.5" fill="#123549" fill-opacity="0.4"/>
<circle cx="144.5" cy="2.22522" r="1.5" fill="#123549" fill-opacity="0.4"/>
<circle cx="157.5" cy="2.22522" r="1.5" fill="#123549" fill-opacity="0.4"/>
<circle cx="170.5" cy="2.22522" r="1.5" fill="#123549" fill-opacity="0.4"/>
<circle cx="183.5" cy="2.22522" r="1.5" fill="#123549" fill-opacity="0.4"/>
<circle cx="196.5" cy="2.22522" r="1.5" fill="#123549" fill-opacity="0.4"/>
<circle cx="209.5" cy="2.22522" r="1.5" fill="#123549" fill-opacity="0.4"/>
<circle cx="222.5" cy="2.22522" r="1.5" fill="#123549" fill-opacity="0.4"/>
</g>
<g clip-path="url(#clip2_2885_100)">
<circle cx="1.5" cy="15.2252" r="1.5" fill="#123549" fill-opacity="0.4"/>
<circle cx="14.5" cy="15.2252" r="1.5" fill="#123549" fill-opacity="0.4"/>
<circle cx="27.5" cy="15.2252" r="1.5" fill="#123549" fill-opacity="0.4"/>
<circle cx="40.5" cy="15.2252" r="1.5" fill="#123549" fill-opacity="0.4"/>
<circle cx="53.5" cy="15.2252" r="1.5" fill="#123549" fill-opacity="0.4"/>
<circle cx="66.5" cy="15.2252" r="1.5" fill="#123549" fill-opacity="0.4"/>
<circle cx="79.5" cy="15.2252" r="1.5" fill="#123549" fill-opacity="0.4"/>
<circle cx="92.5" cy="15.2252" r="1.5" fill="#123549" fill-opacity="0.4"/>
<circle cx="105.5" cy="15.2252" r="1.5" fill="#123549" fill-opacity="0.4"/>
<circle cx="118.5" cy="15.2252" r="1.5" fill="#123549" fill-opacity="0.4"/>
<circle cx="131.5" cy="15.2252" r="1.5" fill="#123549" fill-opacity="0.4"/>
<circle cx="144.5" cy="15.2252" r="1.5" fill="#123549" fill-opacity="0.4"/>
<circle cx="157.5" cy="15.2252" r="1.5" fill="#123549" fill-opacity="0.4"/>
<circle cx="170.5" cy="15.2252" r="1.5" fill="#123549" fill-opacity="0.4"/>
<circle cx="183.5" cy="15.2252" r="1.5" fill="#123549" fill-opacity="0.4"/>
<circle cx="196.5" cy="15.2252" r="1.5" fill="#123549" fill-opacity="0.4"/>
<circle cx="209.5" cy="15.2252" r="1.5" fill="#123549" fill-opacity="0.4"/>
<circle cx="222.5" cy="15.2252" r="1.5" fill="#123549" fill-opacity="0.4"/>
</g>
<g clip-path="url(#clip3_2885_100)">
<circle cx="1.5" cy="28.2252" r="1.5" fill="#123549" fill-opacity="0.4"/>
<circle cx="14.5" cy="28.2252" r="1.5" fill="#123549" fill-opacity="0.4"/>
<circle cx="27.5" cy="28.2252" r="1.5" fill="#123549" fill-opacity="0.4"/>
<circle cx="40.5" cy="28.2252" r="1.5" fill="#123549" fill-opacity="0.4"/>
<circle cx="53.5" cy="28.2252" r="1.5" fill="#123549" fill-opacity="0.4"/>
<circle cx="66.5" cy="28.2252" r="1.5" fill="#123549" fill-opacity="0.4"/>
<circle cx="79.5" cy="28.2252" r="1.5" fill="#123549" fill-opacity="0.4"/>
<circle cx="92.5" cy="28.2252" r="1.5" fill="#123549" fill-opacity="0.4"/>
<circle cx="105.5" cy="28.2252" r="1.5" fill="#123549" fill-opacity="0.4"/>
<circle cx="118.5" cy="28.2252" r="1.5" fill="#123549" fill-opacity="0.4"/>
<circle cx="131.5" cy="28.2252" r="1.5" fill="#123549" fill-opacity="0.4"/>
<circle cx="144.5" cy="28.2252" r="1.5" fill="#123549" fill-opacity="0.4"/>
<circle cx="157.5" cy="28.2252" r="1.5" fill="#123549" fill-opacity="0.4"/>
<circle cx="170.5" cy="28.2252" r="1.5" fill="#123549" fill-opacity="0.4"/>
<circle cx="183.5" cy="28.2252" r="1.5" fill="#123549" fill-opacity="0.4"/>
<circle cx="196.5" cy="28.2252" r="1.5" fill="#123549" fill-opacity="0.4"/>
<circle cx="209.5" cy="28.2252" r="1.5" fill="#123549" fill-opacity="0.4"/>
<circle cx="222.5" cy="28.2252" r="1.5" fill="#123549" fill-opacity="0.4"/>
</g>
<g clip-path="url(#clip4_2885_100)">
<circle cx="1.5" cy="41.2252" r="1.5" fill="#123549" fill-opacity="0.4"/>
<circle cx="14.5" cy="41.2252" r="1.5" fill="#123549" fill-opacity="0.4"/>
<circle cx="27.5" cy="41.2252" r="1.5" fill="#123549" fill-opacity="0.4"/>
<circle cx="40.5" cy="41.2252" r="1.5" fill="#123549" fill-opacity="0.4"/>
<circle cx="53.5" cy="41.2252" r="1.5" fill="#123549" fill-opacity="0.4"/>
<circle cx="66.5" cy="41.2252" r="1.5" fill="#123549" fill-opacity="0.4"/>
<circle cx="79.5" cy="41.2252" r="1.5" fill="#123549" fill-opacity="0.4"/>
<circle cx="92.5" cy="41.2252" r="1.5" fill="#123549" fill-opacity="0.4"/>
<circle cx="105.5" cy="41.2252" r="1.5" fill="#123549" fill-opacity="0.4"/>
<circle cx="118.5" cy="41.2252" r="1.5" fill="#123549" fill-opacity="0.4"/>
<circle cx="131.5" cy="41.2252" r="1.5" fill="#123549" fill-opacity="0.4"/>
<circle cx="144.5" cy="41.2252" r="1.5" fill="#123549" fill-opacity="0.4"/>
<circle cx="157.5" cy="41.2252" r="1.5" fill="#123549" fill-opacity="0.4"/>
<circle cx="170.5" cy="41.2252" r="1.5" fill="#123549" fill-opacity="0.4"/>
<circle cx="183.5" cy="41.2252" r="1.5" fill="#123549" fill-opacity="0.4"/>
<circle cx="196.5" cy="41.2252" r="1.5" fill="#123549" fill-opacity="0.4"/>
<circle cx="209.5" cy="41.2252" r="1.5" fill="#123549" fill-opacity="0.4"/>
<circle cx="222.5" cy="41.2252" r="1.5" fill="#123549" fill-opacity="0.4"/>
</g>
<g clip-path="url(#clip5_2885_100)">
<circle cx="1.5" cy="54.2252" r="1.5" fill="#123549" fill-opacity="0.4"/>
<circle cx="14.5" cy="54.2252" r="1.5" fill="#123549" fill-opacity="0.4"/>
<circle cx="27.5" cy="54.2252" r="1.5" fill="#123549" fill-opacity="0.4"/>
<circle cx="40.5" cy="54.2252" r="1.5" fill="#123549" fill-opacity="0.4"/>
<circle cx="53.5" cy="54.2252" r="1.5" fill="#123549" fill-opacity="0.4"/>
<circle cx="66.5" cy="54.2252" r="1.5" fill="#123549" fill-opacity="0.4"/>
<circle cx="79.5" cy="54.2252" r="1.5" fill="#123549" fill-opacity="0.4"/>
<circle cx="92.5" cy="54.2252" r="1.5" fill="#123549" fill-opacity="0.4"/>
<circle cx="105.5" cy="54.2252" r="1.5" fill="#123549" fill-opacity="0.4"/>
<circle cx="118.5" cy="54.2252" r="1.5" fill="#123549" fill-opacity="0.4"/>
<circle cx="131.5" cy="54.2252" r="1.5" fill="#123549" fill-opacity="0.4"/>
<circle cx="144.5" cy="54.2252" r="1.5" fill="#123549" fill-opacity="0.4"/>
<circle cx="157.5" cy="54.2252" r="1.5" fill="#123549" fill-opacity="0.4"/>
<circle cx="170.5" cy="54.2252" r="1.5" fill="#123549" fill-opacity="0.4"/>
<circle cx="183.5" cy="54.2252" r="1.5" fill="#123549" fill-opacity="0.4"/>
<circle cx="196.5" cy="54.2252" r="1.5" fill="#123549" fill-opacity="0.4"/>
<circle cx="209.5" cy="54.2252" r="1.5" fill="#123549" fill-opacity="0.4"/>
<circle cx="222.5" cy="54.2252" r="1.5" fill="#123549" fill-opacity="0.4"/>
</g>
</g>
<defs>
<clipPath id="clip0_2885_100">
<rect width="230" height="59.9389" fill="white" transform="translate(0 0.72522)"/>
</clipPath>
<clipPath id="clip1_2885_100">
<rect width="250" height="13" fill="white" transform="translate(0 0.72522)"/>
</clipPath>
<clipPath id="clip2_2885_100">
<rect width="250" height="13" fill="white" transform="translate(0 13.7252)"/>
</clipPath>
<clipPath id="clip3_2885_100">
<rect width="250" height="13" fill="white" transform="translate(0 26.7252)"/>
</clipPath>
<clipPath id="clip4_2885_100">
<rect width="250" height="13" fill="white" transform="translate(0 39.7252)"/>
</clipPath>
<clipPath id="clip5_2885_100">
<rect width="250" height="13" fill="white" transform="translate(0 52.7252)"/>
</clipPath>
</defs>
</svg>
