<svg width="250" height="100" viewBox="0 0 250 100" fill="none" xmlns="http://www.w3.org/2000/svg">
<g clip-path="url(#clip0_10_1803)">
<circle cx="1.5" cy="1.5" r="1.5" fill="#FF7500" fill-opacity="0.26"/>
<circle cx="14.5" cy="1.5" r="1.5" fill="#FF7500" fill-opacity="0.26"/>
<circle cx="27.5" cy="1.5" r="1.5" fill="#FF7500" fill-opacity="0.26"/>
<circle cx="40.5" cy="1.5" r="1.5" fill="#FF7500" fill-opacity="0.26"/>
<circle cx="53.5" cy="1.5" r="1.5" fill="#FF7500" fill-opacity="0.26"/>
<circle cx="66.5" cy="1.5" r="1.5" fill="#FF7500" fill-opacity="0.26"/>
<circle cx="79.5" cy="1.5" r="1.5" fill="#FF7500" fill-opacity="0.26"/>
<circle cx="92.5" cy="1.5" r="1.5" fill="#FF7500" fill-opacity="0.26"/>
<circle cx="105.5" cy="1.5" r="1.5" fill="#FF7500" fill-opacity="0.26"/>
<circle cx="118.5" cy="1.5" r="1.5" fill="#FF7500" fill-opacity="0.26"/>
<circle cx="131.5" cy="1.5" r="1.5" fill="#FF7500" fill-opacity="0.26"/>
<circle cx="144.5" cy="1.5" r="1.5" fill="#FF7500" fill-opacity="0.26"/>
<circle cx="157.5" cy="1.5" r="1.5" fill="#FF7500" fill-opacity="0.26"/>
<circle cx="170.5" cy="1.5" r="1.5" fill="#FF7500" fill-opacity="0.26"/>
<circle cx="183.5" cy="1.5" r="1.5" fill="#FF7500" fill-opacity="0.26"/>
<circle cx="196.5" cy="1.5" r="1.5" fill="#FF7500" fill-opacity="0.26"/>
<circle cx="209.5" cy="1.5" r="1.5" fill="#FF7500" fill-opacity="0.26"/>
<circle cx="222.5" cy="1.5" r="1.5" fill="#FF7500" fill-opacity="0.26"/>
<circle cx="235.5" cy="1.5" r="1.5" fill="#FF7500" fill-opacity="0.26"/>
<circle cx="248.5" cy="1.5" r="1.5" fill="#FF7500" fill-opacity="0.26"/>
<circle cx="1.5" cy="14.5" r="1.5" fill="#FF7500" fill-opacity="0.26"/>
<circle cx="14.5" cy="14.5" r="1.5" fill="#FF7500" fill-opacity="0.26"/>
<circle cx="27.5" cy="14.5" r="1.5" fill="#FF7500" fill-opacity="0.26"/>
<circle cx="40.5" cy="14.5" r="1.5" fill="#FF7500" fill-opacity="0.26"/>
<circle cx="53.5" cy="14.5" r="1.5" fill="#FF7500" fill-opacity="0.26"/>
<circle cx="66.5" cy="14.5" r="1.5" fill="#FF7500" fill-opacity="0.26"/>
<circle cx="79.5" cy="14.5" r="1.5" fill="#FF7500" fill-opacity="0.26"/>
<circle cx="92.5" cy="14.5" r="1.5" fill="#FF7500" fill-opacity="0.26"/>
<circle cx="105.5" cy="14.5" r="1.5" fill="#FF7500" fill-opacity="0.26"/>
<circle cx="118.5" cy="14.5" r="1.5" fill="#FF7500" fill-opacity="0.26"/>
<circle cx="131.5" cy="14.5" r="1.5" fill="#FF7500" fill-opacity="0.26"/>
<circle cx="144.5" cy="14.5" r="1.5" fill="#FF7500" fill-opacity="0.26"/>
<circle cx="157.5" cy="14.5" r="1.5" fill="#FF7500" fill-opacity="0.26"/>
<circle cx="170.5" cy="14.5" r="1.5" fill="#FF7500" fill-opacity="0.26"/>
<circle cx="183.5" cy="14.5" r="1.5" fill="#FF7500" fill-opacity="0.26"/>
<circle cx="196.5" cy="14.5" r="1.5" fill="#FF7500" fill-opacity="0.26"/>
<circle cx="209.5" cy="14.5" r="1.5" fill="#FF7500" fill-opacity="0.26"/>
<circle cx="222.5" cy="14.5" r="1.5" fill="#FF7500" fill-opacity="0.26"/>
<circle cx="235.5" cy="14.5" r="1.5" fill="#FF7500" fill-opacity="0.26"/>
<circle cx="248.5" cy="14.5" r="1.5" fill="#FF7500" fill-opacity="0.26"/>
<circle cx="1.5" cy="27.5" r="1.5" fill="#FF7500" fill-opacity="0.26"/>
<circle cx="14.5" cy="27.5" r="1.5" fill="#FF7500" fill-opacity="0.26"/>
<circle cx="27.5" cy="27.5" r="1.5" fill="#FF7500" fill-opacity="0.26"/>
<circle cx="40.5" cy="27.5" r="1.5" fill="#FF7500" fill-opacity="0.26"/>
<circle cx="53.5" cy="27.5" r="1.5" fill="#FF7500" fill-opacity="0.26"/>
<circle cx="66.5" cy="27.5" r="1.5" fill="#FF7500" fill-opacity="0.26"/>
<circle cx="79.5" cy="27.5" r="1.5" fill="#FF7500" fill-opacity="0.26"/>
<circle cx="92.5" cy="27.5" r="1.5" fill="#FF7500" fill-opacity="0.26"/>
<circle cx="105.5" cy="27.5" r="1.5" fill="#FF7500" fill-opacity="0.26"/>
<circle cx="118.5" cy="27.5" r="1.5" fill="#FF7500" fill-opacity="0.26"/>
<circle cx="131.5" cy="27.5" r="1.5" fill="#FF7500" fill-opacity="0.26"/>
<circle cx="144.5" cy="27.5" r="1.5" fill="#FF7500" fill-opacity="0.26"/>
<circle cx="157.5" cy="27.5" r="1.5" fill="#FF7500" fill-opacity="0.26"/>
<circle cx="170.5" cy="27.5" r="1.5" fill="#FF7500" fill-opacity="0.26"/>
<circle cx="183.5" cy="27.5" r="1.5" fill="#FF7500" fill-opacity="0.26"/>
<circle cx="196.5" cy="27.5" r="1.5" fill="#FF7500" fill-opacity="0.26"/>
<circle cx="209.5" cy="27.5" r="1.5" fill="#FF7500" fill-opacity="0.26"/>
<circle cx="222.5" cy="27.5" r="1.5" fill="#FF7500" fill-opacity="0.26"/>
<circle cx="235.5" cy="27.5" r="1.5" fill="#FF7500" fill-opacity="0.26"/>
<circle cx="248.5" cy="27.5" r="1.5" fill="#FF7500" fill-opacity="0.26"/>
<circle cx="1.5" cy="40.5" r="1.5" fill="#FF7500" fill-opacity="0.26"/>
<circle cx="14.5" cy="40.5" r="1.5" fill="#FF7500" fill-opacity="0.26"/>
<circle cx="27.5" cy="40.5" r="1.5" fill="#FF7500" fill-opacity="0.26"/>
<circle cx="40.5" cy="40.5" r="1.5" fill="#FF7500" fill-opacity="0.26"/>
<circle cx="53.5" cy="40.5" r="1.5" fill="#FF7500" fill-opacity="0.26"/>
<circle cx="66.5" cy="40.5" r="1.5" fill="#FF7500" fill-opacity="0.26"/>
<circle cx="79.5" cy="40.5" r="1.5" fill="#FF7500" fill-opacity="0.26"/>
<circle cx="92.5" cy="40.5" r="1.5" fill="#FF7500" fill-opacity="0.26"/>
<circle cx="105.5" cy="40.5" r="1.5" fill="#FF7500" fill-opacity="0.26"/>
<circle cx="118.5" cy="40.5" r="1.5" fill="#FF7500" fill-opacity="0.26"/>
<circle cx="131.5" cy="40.5" r="1.5" fill="#FF7500" fill-opacity="0.26"/>
<circle cx="144.5" cy="40.5" r="1.5" fill="#FF7500" fill-opacity="0.26"/>
<circle cx="157.5" cy="40.5" r="1.5" fill="#FF7500" fill-opacity="0.26"/>
<circle cx="170.5" cy="40.5" r="1.5" fill="#FF7500" fill-opacity="0.26"/>
<circle cx="183.5" cy="40.5" r="1.5" fill="#FF7500" fill-opacity="0.26"/>
<circle cx="196.5" cy="40.5" r="1.5" fill="#FF7500" fill-opacity="0.26"/>
<circle cx="209.5" cy="40.5" r="1.5" fill="#FF7500" fill-opacity="0.26"/>
<circle cx="222.5" cy="40.5" r="1.5" fill="#FF7500" fill-opacity="0.26"/>
<circle cx="235.5" cy="40.5" r="1.5" fill="#FF7500" fill-opacity="0.26"/>
<circle cx="248.5" cy="40.5" r="1.5" fill="#FF7500" fill-opacity="0.26"/>
<circle cx="1.5" cy="53.5" r="1.5" fill="#FF7500" fill-opacity="0.26"/>
<circle cx="14.5" cy="53.5" r="1.5" fill="#FF7500" fill-opacity="0.26"/>
<circle cx="27.5" cy="53.5" r="1.5" fill="#FF7500" fill-opacity="0.26"/>
<circle cx="40.5" cy="53.5" r="1.5" fill="#FF7500" fill-opacity="0.26"/>
<circle cx="53.5" cy="53.5" r="1.5" fill="#FF7500" fill-opacity="0.26"/>
<circle cx="66.5" cy="53.5" r="1.5" fill="#FF7500" fill-opacity="0.26"/>
<circle cx="79.5" cy="53.5" r="1.5" fill="#FF7500" fill-opacity="0.26"/>
<circle cx="92.5" cy="53.5" r="1.5" fill="#FF7500" fill-opacity="0.26"/>
<circle cx="105.5" cy="53.5" r="1.5" fill="#FF7500" fill-opacity="0.26"/>
<circle cx="118.5" cy="53.5" r="1.5" fill="#FF7500" fill-opacity="0.26"/>
<circle cx="131.5" cy="53.5" r="1.5" fill="#FF7500" fill-opacity="0.26"/>
<circle cx="144.5" cy="53.5" r="1.5" fill="#FF7500" fill-opacity="0.26"/>
<circle cx="157.5" cy="53.5" r="1.5" fill="#FF7500" fill-opacity="0.26"/>
<circle cx="170.5" cy="53.5" r="1.5" fill="#FF7500" fill-opacity="0.26"/>
<circle cx="183.5" cy="53.5" r="1.5" fill="#FF7500" fill-opacity="0.26"/>
<circle cx="196.5" cy="53.5" r="1.5" fill="#FF7500" fill-opacity="0.26"/>
<circle cx="209.5" cy="53.5" r="1.5" fill="#FF7500" fill-opacity="0.26"/>
<circle cx="222.5" cy="53.5" r="1.5" fill="#FF7500" fill-opacity="0.26"/>
<circle cx="235.5" cy="53.5" r="1.5" fill="#FF7500" fill-opacity="0.26"/>
<circle cx="248.5" cy="53.5" r="1.5" fill="#FF7500" fill-opacity="0.26"/>
<circle cx="1.5" cy="66.5" r="1.5" fill="#FF7500" fill-opacity="0.26"/>
<circle cx="14.5" cy="66.5" r="1.5" fill="#FF7500" fill-opacity="0.26"/>
<circle cx="27.5" cy="66.5" r="1.5" fill="#FF7500" fill-opacity="0.26"/>
<circle cx="40.5" cy="66.5" r="1.5" fill="#FF7500" fill-opacity="0.26"/>
<circle cx="53.5" cy="66.5" r="1.5" fill="#FF7500" fill-opacity="0.26"/>
<circle cx="66.5" cy="66.5" r="1.5" fill="#FF7500" fill-opacity="0.26"/>
<circle cx="79.5" cy="66.5" r="1.5" fill="#FF7500" fill-opacity="0.26"/>
<circle cx="92.5" cy="66.5" r="1.5" fill="#FF7500" fill-opacity="0.26"/>
<circle cx="105.5" cy="66.5" r="1.5" fill="#FF7500" fill-opacity="0.26"/>
<circle cx="118.5" cy="66.5" r="1.5" fill="#FF7500" fill-opacity="0.26"/>
<circle cx="131.5" cy="66.5" r="1.5" fill="#FF7500" fill-opacity="0.26"/>
<circle cx="144.5" cy="66.5" r="1.5" fill="#FF7500" fill-opacity="0.26"/>
<circle cx="157.5" cy="66.5" r="1.5" fill="#FF7500" fill-opacity="0.26"/>
<circle cx="170.5" cy="66.5" r="1.5" fill="#FF7500" fill-opacity="0.26"/>
<circle cx="183.5" cy="66.5" r="1.5" fill="#FF7500" fill-opacity="0.26"/>
<circle cx="196.5" cy="66.5" r="1.5" fill="#FF7500" fill-opacity="0.26"/>
<circle cx="209.5" cy="66.5" r="1.5" fill="#FF7500" fill-opacity="0.26"/>
<circle cx="222.5" cy="66.5" r="1.5" fill="#FF7500" fill-opacity="0.26"/>
<circle cx="235.5" cy="66.5" r="1.5" fill="#FF7500" fill-opacity="0.26"/>
<circle cx="248.5" cy="66.5" r="1.5" fill="#FF7500" fill-opacity="0.26"/>
<circle cx="1.5" cy="79.5" r="1.5" fill="#FF7500" fill-opacity="0.26"/>
<circle cx="14.5" cy="79.5" r="1.5" fill="#FF7500" fill-opacity="0.26"/>
<circle cx="27.5" cy="79.5" r="1.5" fill="#FF7500" fill-opacity="0.26"/>
<circle cx="40.5" cy="79.5" r="1.5" fill="#FF7500" fill-opacity="0.26"/>
<circle cx="53.5" cy="79.5" r="1.5" fill="#FF7500" fill-opacity="0.26"/>
<circle cx="66.5" cy="79.5" r="1.5" fill="#FF7500" fill-opacity="0.26"/>
<circle cx="79.5" cy="79.5" r="1.5" fill="#FF7500" fill-opacity="0.26"/>
<circle cx="92.5" cy="79.5" r="1.5" fill="#FF7500" fill-opacity="0.26"/>
<circle cx="105.5" cy="79.5" r="1.5" fill="#FF7500" fill-opacity="0.26"/>
<circle cx="118.5" cy="79.5" r="1.5" fill="#FF7500" fill-opacity="0.26"/>
<circle cx="131.5" cy="79.5" r="1.5" fill="#FF7500" fill-opacity="0.26"/>
<circle cx="144.5" cy="79.5" r="1.5" fill="#FF7500" fill-opacity="0.26"/>
<circle cx="157.5" cy="79.5" r="1.5" fill="#FF7500" fill-opacity="0.26"/>
<circle cx="170.5" cy="79.5" r="1.5" fill="#FF7500" fill-opacity="0.26"/>
<circle cx="183.5" cy="79.5" r="1.5" fill="#FF7500" fill-opacity="0.26"/>
<circle cx="196.5" cy="79.5" r="1.5" fill="#FF7500" fill-opacity="0.26"/>
<circle cx="209.5" cy="79.5" r="1.5" fill="#FF7500" fill-opacity="0.26"/>
<circle cx="222.5" cy="79.5" r="1.5" fill="#FF7500" fill-opacity="0.26"/>
<circle cx="235.5" cy="79.5" r="1.5" fill="#FF7500" fill-opacity="0.26"/>
<circle cx="248.5" cy="79.5" r="1.5" fill="#FF7500" fill-opacity="0.26"/>
<g clip-path="url(#clip1_10_1803)">
<circle cx="1.5" cy="92.5" r="1.5" fill="#FF7500" fill-opacity="0.26"/>
<circle cx="14.5" cy="92.5" r="1.5" fill="#FF7500" fill-opacity="0.26"/>
<circle cx="27.5" cy="92.5" r="1.5" fill="#FF7500" fill-opacity="0.26"/>
<circle cx="40.5" cy="92.5" r="1.5" fill="#FF7500" fill-opacity="0.26"/>
<circle cx="53.5" cy="92.5" r="1.5" fill="#FF7500" fill-opacity="0.26"/>
<circle cx="66.5" cy="92.5" r="1.5" fill="#FF7500" fill-opacity="0.26"/>
<circle cx="79.5" cy="92.5" r="1.5" fill="#FF7500" fill-opacity="0.26"/>
<circle cx="92.5" cy="92.5" r="1.5" fill="#FF7500" fill-opacity="0.26"/>
<circle cx="105.5" cy="92.5" r="1.5" fill="#FF7500" fill-opacity="0.26"/>
<circle cx="118.5" cy="92.5" r="1.5" fill="#FF7500" fill-opacity="0.26"/>
<circle cx="131.5" cy="92.5" r="1.5" fill="#FF7500" fill-opacity="0.26"/>
<circle cx="144.5" cy="92.5" r="1.5" fill="#FF7500" fill-opacity="0.26"/>
<circle cx="157.5" cy="92.5" r="1.5" fill="#FF7500" fill-opacity="0.26"/>
<circle cx="170.5" cy="92.5" r="1.5" fill="#FF7500" fill-opacity="0.26"/>
<circle cx="183.5" cy="92.5" r="1.5" fill="#FF7500" fill-opacity="0.26"/>
<circle cx="196.5" cy="92.5" r="1.5" fill="#FF7500" fill-opacity="0.26"/>
<circle cx="209.5" cy="92.5" r="1.5" fill="#FF7500" fill-opacity="0.26"/>
<circle cx="222.5" cy="92.5" r="1.5" fill="#FF7500" fill-opacity="0.26"/>
<circle cx="235.5" cy="92.5" r="1.5" fill="#FF7500" fill-opacity="0.26"/>
<ellipse cx="252" cy="92.5" rx="5" ry="1.5" fill="#FF7500" fill-opacity="0.26"/>
</g>
</g>
<defs>
<clipPath id="clip0_10_1803">
<rect width="250" height="100" fill="white"/>
</clipPath>
<clipPath id="clip1_10_1803">
<rect width="250" height="13" fill="white" transform="translate(0 91)"/>
</clipPath>
</defs>
</svg>
