<svg width="691" height="683" viewBox="0 0 691 683" fill="none" xmlns="http://www.w3.org/2000/svg">
<path d="M89.5895 541.227L1 0H910.5V680.898C776.16 681.73 269.014 682.894 193.152 680.898C117.289 678.903 92.5009 586.953 89.5895 541.227Z" fill="#FF7500" fill-opacity="0.75"/>
<path d="M89.5895 541.227L1 0H910.5V680.898C776.16 681.73 269.014 682.894 193.152 680.898C117.289 678.903 92.5009 586.953 89.5895 541.227Z" stroke="#FF7500"/>
<path d="M89.5895 541.227L1 0H910.5V680.898C776.16 681.73 269.014 682.894 193.152 680.898C117.289 678.903 92.5009 586.953 89.5895 541.227Z" stroke="url(#paint0_linear_10_14)"/>
<defs>
<linearGradient id="paint0_linear_10_14" x1="346" y1="4.65076e-10" x2="346" y2="682" gradientUnits="userSpaceOnUse">
<stop stop-color="#FF7500"/>
<stop offset="1" stop-color="white" stop-opacity="0"/>
</linearGradient>
</defs>
</svg>
