<svg width="180" height="35" viewBox="0 0 180 35" fill="none" xmlns="http://www.w3.org/2000/svg">
<g clip-path="url(#clip0_10_2005)">
<circle cx="1.5" cy="1.5" r="1.5" fill="#FF7500" fill-opacity="0.2"/>
<circle cx="10.5" cy="1.5" r="1.5" fill="#FF7500" fill-opacity="0.2"/>
<circle cx="19.5" cy="1.5" r="1.5" fill="#FF7500" fill-opacity="0.2"/>
<circle cx="28.5" cy="1.5" r="1.5" fill="#FF7500" fill-opacity="0.2"/>
<circle cx="37.5" cy="1.5" r="1.5" fill="#FF7500" fill-opacity="0.2"/>
<circle cx="46.5" cy="1.5" r="1.5" fill="#FF7500" fill-opacity="0.2"/>
<circle cx="55.5" cy="1.5" r="1.5" fill="#FF7500" fill-opacity="0.2"/>
<circle cx="64.5" cy="1.5" r="1.5" fill="#FF7500" fill-opacity="0.2"/>
<circle cx="73.5" cy="1.5" r="1.5" fill="#FF7500" fill-opacity="0.2"/>
<circle cx="82.5" cy="1.5" r="1.5" fill="#FF7500" fill-opacity="0.2"/>
<circle cx="91.5" cy="1.5" r="1.5" fill="#FF7500" fill-opacity="0.2"/>
<circle cx="100.5" cy="1.5" r="1.5" fill="#FF7500" fill-opacity="0.2"/>
<circle cx="109.5" cy="1.5" r="1.5" fill="#FF7500" fill-opacity="0.2"/>
<circle cx="118.5" cy="1.5" r="1.5" fill="#FF7500" fill-opacity="0.2"/>
<circle cx="127.5" cy="1.5" r="1.5" fill="#FF7500" fill-opacity="0.2"/>
<circle cx="136.5" cy="1.5" r="1.5" fill="#FF7500" fill-opacity="0.2"/>
<circle cx="145.5" cy="1.5" r="1.5" fill="#FF7500" fill-opacity="0.2"/>
<circle cx="154.5" cy="1.5" r="1.5" fill="#FF7500" fill-opacity="0.2"/>
<circle cx="163.5" cy="1.5" r="1.5" fill="#FF7500" fill-opacity="0.2"/>
<circle cx="172.5" cy="1.5" r="1.5" fill="#FF7500" fill-opacity="0.2"/>
<circle cx="1.5" cy="10.5" r="1.5" fill="#FF7500" fill-opacity="0.2"/>
<circle cx="10.5" cy="10.5" r="1.5" fill="#FF7500" fill-opacity="0.2"/>
<circle cx="19.5" cy="10.5" r="1.5" fill="#FF7500" fill-opacity="0.2"/>
<circle cx="28.5" cy="10.5" r="1.5" fill="#FF7500" fill-opacity="0.2"/>
<circle cx="37.5" cy="10.5" r="1.5" fill="#FF7500" fill-opacity="0.2"/>
<circle cx="46.5" cy="10.5" r="1.5" fill="#FF7500" fill-opacity="0.2"/>
<circle cx="55.5" cy="10.5" r="1.5" fill="#FF7500" fill-opacity="0.2"/>
<circle cx="64.5" cy="10.5" r="1.5" fill="#FF7500" fill-opacity="0.2"/>
<circle cx="73.5" cy="10.5" r="1.5" fill="#FF7500" fill-opacity="0.2"/>
<circle cx="82.5" cy="10.5" r="1.5" fill="#FF7500" fill-opacity="0.2"/>
<circle cx="91.5" cy="10.5" r="1.5" fill="#FF7500" fill-opacity="0.2"/>
<circle cx="100.5" cy="10.5" r="1.5" fill="#FF7500" fill-opacity="0.2"/>
<circle cx="109.5" cy="10.5" r="1.5" fill="#FF7500" fill-opacity="0.2"/>
<circle cx="118.5" cy="10.5" r="1.5" fill="#FF7500" fill-opacity="0.2"/>
<circle cx="127.5" cy="10.5" r="1.5" fill="#FF7500" fill-opacity="0.2"/>
<circle cx="136.5" cy="10.5" r="1.5" fill="#FF7500" fill-opacity="0.2"/>
<circle cx="145.5" cy="10.5" r="1.5" fill="#FF7500" fill-opacity="0.2"/>
<circle cx="154.5" cy="10.5" r="1.5" fill="#FF7500" fill-opacity="0.2"/>
<circle cx="163.5" cy="10.5" r="1.5" fill="#FF7500" fill-opacity="0.2"/>
<circle cx="172.5" cy="10.5" r="1.5" fill="#FF7500" fill-opacity="0.2"/>
<circle cx="1.5" cy="19.5" r="1.5" fill="#FF7500" fill-opacity="0.2"/>
<circle cx="10.5" cy="19.5" r="1.5" fill="#FF7500" fill-opacity="0.2"/>
<circle cx="19.5" cy="19.5" r="1.5" fill="#FF7500" fill-opacity="0.2"/>
<circle cx="28.5" cy="19.5" r="1.5" fill="#FF7500" fill-opacity="0.2"/>
<circle cx="37.5" cy="19.5" r="1.5" fill="#FF7500" fill-opacity="0.2"/>
<circle cx="46.5" cy="19.5" r="1.5" fill="#FF7500" fill-opacity="0.2"/>
<circle cx="55.5" cy="19.5" r="1.5" fill="#FF7500" fill-opacity="0.2"/>
<circle cx="64.5" cy="19.5" r="1.5" fill="#FF7500" fill-opacity="0.2"/>
<circle cx="73.5" cy="19.5" r="1.5" fill="#FF7500" fill-opacity="0.2"/>
<circle cx="82.5" cy="19.5" r="1.5" fill="#FF7500" fill-opacity="0.2"/>
<circle cx="91.5" cy="19.5" r="1.5" fill="#FF7500" fill-opacity="0.2"/>
<circle cx="100.5" cy="19.5" r="1.5" fill="#FF7500" fill-opacity="0.2"/>
<circle cx="109.5" cy="19.5" r="1.5" fill="#FF7500" fill-opacity="0.2"/>
<circle cx="118.5" cy="19.5" r="1.5" fill="#FF7500" fill-opacity="0.2"/>
<circle cx="127.5" cy="19.5" r="1.5" fill="#FF7500" fill-opacity="0.2"/>
<circle cx="136.5" cy="19.5" r="1.5" fill="#FF7500" fill-opacity="0.2"/>
<circle cx="145.5" cy="19.5" r="1.5" fill="#FF7500" fill-opacity="0.2"/>
<circle cx="154.5" cy="19.5" r="1.5" fill="#FF7500" fill-opacity="0.2"/>
<circle cx="163.5" cy="19.5" r="1.5" fill="#FF7500" fill-opacity="0.2"/>
<circle cx="172.5" cy="19.5" r="1.5" fill="#FF7500" fill-opacity="0.2"/>
<circle cx="1.5" cy="28.5" r="1.5" fill="#FF7500" fill-opacity="0.2"/>
<circle cx="10.5" cy="28.5" r="1.5" fill="#FF7500" fill-opacity="0.2"/>
<circle cx="19.5" cy="28.5" r="1.5" fill="#FF7500" fill-opacity="0.2"/>
<circle cx="28.5" cy="28.5" r="1.5" fill="#FF7500" fill-opacity="0.2"/>
<circle cx="37.5" cy="28.5" r="1.5" fill="#FF7500" fill-opacity="0.2"/>
<circle cx="46.5" cy="28.5" r="1.5" fill="#FF7500" fill-opacity="0.2"/>
<circle cx="55.5" cy="28.5" r="1.5" fill="#FF7500" fill-opacity="0.2"/>
<circle cx="64.5" cy="28.5" r="1.5" fill="#FF7500" fill-opacity="0.2"/>
<circle cx="73.5" cy="28.5" r="1.5" fill="#FF7500" fill-opacity="0.2"/>
<circle cx="82.5" cy="28.5" r="1.5" fill="#FF7500" fill-opacity="0.2"/>
<circle cx="91.5" cy="28.5" r="1.5" fill="#FF7500" fill-opacity="0.2"/>
<circle cx="100.5" cy="28.5" r="1.5" fill="#FF7500" fill-opacity="0.2"/>
<circle cx="109.5" cy="28.5" r="1.5" fill="#FF7500" fill-opacity="0.2"/>
<circle cx="118.5" cy="28.5" r="1.5" fill="#FF7500" fill-opacity="0.2"/>
<circle cx="127.5" cy="28.5" r="1.5" fill="#FF7500" fill-opacity="0.2"/>
<circle cx="136.5" cy="28.5" r="1.5" fill="#FF7500" fill-opacity="0.2"/>
<circle cx="145.5" cy="28.5" r="1.5" fill="#FF7500" fill-opacity="0.2"/>
<circle cx="154.5" cy="28.5" r="1.5" fill="#FF7500" fill-opacity="0.2"/>
<circle cx="163.5" cy="28.5" r="1.5" fill="#FF7500" fill-opacity="0.2"/>
<circle cx="172.5" cy="28.5" r="1.5" fill="#FF7500" fill-opacity="0.2"/>
</g>
<defs>
<clipPath id="clip0_10_2005">
<rect width="180" height="35" fill="white"/>
</clipPath>
</defs>
</svg>
